<svg xmlns="http://www.w3.org/2000/svg" viewBox="0 0 640 245" role="img" aria-label="Illustrative research chart; no live prices"><rect width="640" height="245" fill="#171c1d"/><g stroke="#2b3233" stroke-width="1"><path d="M24 60H616"/><path d="M24 100H616"/><path d="M24 140H616"/><path d="M24 180H616"/></g><text x="24" y="29" fill="#afbab4" font-family="Arial" font-size="12" letter-spacing="1.4">BTC / RANGE STUDY</text><path d="M24 128H616" stroke="#929479" stroke-dasharray="4 5"/><line x1="38" y1="118.0" x2="38" y2="134.0" stroke="#93aa92"/><rect x="33" y="126.0" width="10" height="2" fill="#93aa92"/><line x1="71" y1="100.39999999999999" x2="71" y2="134.0" stroke="#93aa92"/><rect x="66" y="108.39999999999999" width="10" height="17.60000000000001" fill="#93aa92"/><line x1="104" y1="100.39999999999999" x2="104" y2="129.2" stroke="#ae8978"/><rect x="99" y="108.39999999999999" width="10" height="12.799999999999997" fill="#ae8978"/><line x1="137" y1="94.0" x2="137" y2="129.2" stroke="#93aa92"/><rect x="132" y="102.0" width="10" height="19.19999999999999" fill="#93aa92"/><line x1="170" y1="94.0" x2="170" y2="121.19999999999999" stroke="#ae8978"/><rect x="165" y="102.0" width="10" height="11.199999999999989" fill="#ae8978"/><line x1="203" y1="105.19999999999999" x2="203" y2="137.2" stroke="#ae8978"/><rect x="198" y="113.19999999999999" width="10" height="16.0" fill="#ae8978"/><line x1="236" y1="102.0" x2="236" y2="137.2" stroke="#93aa92"/><rect x="231" y="110.0" width="10" height="19.19999999999999" fill="#93aa92"/><line x1="269" y1="95.6" x2="269" y2="118.0" stroke="#93aa92"/><rect x="264" y="103.6" width="10" height="6.400000000000006" fill="#93aa92"/><line x1="302" y1="95.6" x2="302" y2="129.2" stroke="#ae8978"/><rect x="297" y="103.6" width="10" height="17.599999999999994" fill="#ae8978"/><line x1="335" y1="97.19999999999999" x2="335" y2="129.2" stroke="#93aa92"/><rect x="330" y="105.19999999999999" width="10" height="16.0" fill="#93aa92"/><line x1="368" y1="97.19999999999999" x2="368" y2="119.6" stroke="#ae8978"/><rect x="363" y="105.19999999999999" width="10" height="6.400000000000006" fill="#ae8978"/><line x1="401" y1="92.39999999999999" x2="401" y2="119.6" stroke="#93aa92"/><rect x="396" y="100.39999999999999" width="10" height="11.200000000000003" fill="#93aa92"/><line x1="434" y1="92.39999999999999" x2="434" y2="116.39999999999999" stroke="#ae8978"/><rect x="429" y="100.39999999999999" width="10" height="8.0" fill="#ae8978"/><line x1="467" y1="95.6" x2="467" y2="116.39999999999999" stroke="#93aa92"/><rect x="462" y="103.6" width="10" height="4.799999999999997" fill="#93aa92"/><line x1="500" y1="95.6" x2="500" y2="118.0" stroke="#ae8978"/><rect x="495" y="103.6" width="10" height="6.400000000000006" fill="#ae8978"/><line x1="533" y1="94.0" x2="533" y2="118.0" stroke="#93aa92"/><rect x="528" y="102.0" width="10" height="8.0" fill="#93aa92"/><line x1="566" y1="94.0" x2="566" y2="113.19999999999999" stroke="#ae8978"/><rect x="561" y="102.0" width="10" height="3.1999999999999886" fill="#ae8978"/><line x1="599" y1="90.8" x2="599" y2="113.19999999999999" stroke="#93aa92"/><rect x="594" y="98.8" width="10" height="6.3999999999999915" fill="#93aa92"/><text x="24" y="228" fill="#8a9792" font-family="Arial" font-size="12">ILLUSTRATIVE DATA / NOT LIVE MARKET PRICES</text></svg>